<?xml version="1.0" encoding="iso-8859-1"?>
<!-- Generator: Adobe Illustrator 18.0.0, SVG Export Plug-In . SVG Version: 6.00 Build 0)  -->
<!DOCTYPE svg PUBLIC "-//W3C//DTD SVG 1.1//EN" "http://www.w3.org/Graphics/SVG/1.1/DTD/svg11.dtd">
<svg version="1.1" id="Capa_1" xmlns="http://www.w3.org/2000/svg" xmlns:xlink="http://www.w3.org/1999/xlink" x="0px" y="0px"
	 viewBox="0 0 297 297" style="enable-background:new 0 0 297 297;" xml:space="preserve">
<g>
	<path d="M296.615,129.875L265.958,22.538c-1.225-4.294-5.15-7.253-9.615-7.253c-66.77,0-111.552,30.779-137.363,56.599
		c-16.213,16.219-27.077,32.393-33.428,43.317c-0.711-0.16-1.446-0.246-2.196-0.246c-4.13,0-7.835,2.54-9.326,6.391l-10.896,28.162
		l-27.604-12.205c-3.78-1.668-8.193-0.846-11.113,2.074c-2.921,2.92-3.746,7.335-2.077,11.113l12.201,27.622L6.389,189.012
		C2.538,190.503,0,194.207,0,198.336c0,4.13,2.539,7.834,6.389,9.325l28.152,10.899L22.34,246.184
		c-1.669,3.777-0.843,8.192,2.078,11.112c2.92,2.92,7.332,3.744,11.112,2.073l27.604-12.205l10.896,28.161
		c1.49,3.852,5.196,6.391,9.326,6.391c4.131,0,7.835-2.54,9.326-6.391l10.895-28.161l27.607,12.206
		c3.779,1.668,8.193,0.845,11.113-2.074c2.921-2.921,3.746-7.335,2.076-11.113l-12.204-27.624l28.151-10.899
		c3.85-1.49,6.389-5.195,6.389-9.325c0-4.13-2.538-7.833-6.389-9.324l-5.57-2.157c0.31-0.234,0.606-0.467,0.92-0.701
		c38.777-28.887,82.962-43.534,131.33-43.534c3.137,0,6.093-1.473,7.983-3.977S297.477,132.892,296.615,129.875z M133.124,86.021
		c31.893-31.904,70.792-48.905,115.716-50.598l8.131,28.468c-10.522,0.734-28.164,3.046-48.219,10.131
		c-25.758,9.1-59.939,27.919-84.986,66.562l-20.19,8.925l-5.756-14.879C100.888,128.278,111.974,107.179,133.124,86.021z
		 M109.642,217.057l5.997,13.573l-13.563-5.996c-2.5-1.106-5.342-1.138-7.87-0.094c-2.525,1.047-4.512,3.081-5.499,5.63
		l-5.351,13.832l-5.352-13.832c-0.986-2.55-2.973-4.584-5.5-5.63c-1.225-0.508-2.526-0.761-3.826-0.761
		c-1.379,0-2.757,0.285-4.044,0.855l-13.563,5.997l5.996-13.575c1.104-2.5,1.137-5.342,0.091-7.867
		c-1.046-2.525-3.079-4.511-5.627-5.498l-13.836-5.357l13.836-5.357c2.549-0.986,4.582-2.973,5.627-5.498
		c1.046-2.525,1.014-5.368-0.091-7.868l-5.996-13.572l13.563,5.997c2.5,1.105,5.343,1.14,7.871,0.093
		c2.525-1.047,4.512-3.081,5.499-5.63l5.352-13.833l5.351,13.833c0.986,2.55,2.973,4.584,5.499,5.629
		c2.524,1.046,5.368,1.013,7.87-0.092l13.562-5.996l-5.996,13.57c-1.105,2.5-1.139,5.343-0.093,7.868
		c1.046,2.525,3.08,4.512,5.629,5.499l13.836,5.357l-13.836,5.357c-2.549,0.986-4.582,2.973-5.628,5.498
		C108.504,211.715,108.537,214.558,109.642,217.057z M145.083,144.79c19.917-29.29,40.613-41.26,69.624-51.661
		c21.466-7.696,40.093-9.22,47.901-9.505l11.238,39.345c-59.429,3.161-103.585,27.236-130.801,47.656
		c-3.505,2.63-6.808,5.257-9.928,7.854l-0.947-0.367C132.169,178.112,140.059,152.178,145.083,144.79z" fill="#ffb347"/>
	<path d="M83.358,188.341c-2.639,0-5.21,1.061-7.069,2.92c-1.87,1.87-2.93,4.44-2.93,7.079c0,2.63,1.061,5.21,2.93,7.06
		c1.859,1.869,4.429,2.939,7.069,2.939c2.63,0,5.21-1.07,7.07-2.939c1.86-1.85,2.929-4.43,2.929-7.06
		c0-2.639-1.069-5.21-2.929-7.079C88.568,189.401,85.988,188.341,83.358,188.341z" fill="#ffb347"/>
</g>
<g>
</g>
<g>
</g>
<g>
</g>
<g>
</g>
<g>
</g>
<g>
</g>
<g>
</g>
<g>
</g>
<g>
</g>
<g>
</g>
<g>
</g>
<g>
</g>
<g>
</g>
<g>
</g>
<g>
</g>
</svg>
